<svg width="17.000000" height="17.000000" viewBox="0 0 17 17" fill="none" xmlns="http://www.w3.org/2000/svg" xmlns:xlink="http://www.w3.org/1999/xlink">
	<desc>
			Created with Pixso.
	</desc>
	<defs/>
	<path id="Vector" d="M8.49 0C3.79 0 0 3.8 0 8.5C0 13.19 3.79 17 8.49 17C13.19 17 17 13.19 17 8.5C17 3.8 13.19 0 8.49 0ZM14.38 5.1L11.87 5.1C11.6 4.03 11.21 3.01 10.7 2.07C12.26 2.6 13.56 3.69 14.38 5.1ZM8.5 1.73C9.2 2.75 9.75 3.88 10.12 5.1L6.87 5.1C7.24 3.88 7.79 2.75 8.5 1.73ZM1.92 10.2C1.78 9.65 1.7 9.08 1.7 8.5C1.7 7.91 1.78 7.34 1.92 6.8L4.79 6.8C4.72 7.36 4.67 7.92 4.67 8.5C4.67 9.07 4.72 9.63 4.79 10.2L1.92 10.2ZM2.61 11.89L5.12 11.89C5.39 12.96 5.78 13.98 6.29 14.92C4.73 14.39 3.43 13.31 2.61 11.89ZM5.12 5.1L2.61 5.1C3.43 3.68 4.73 2.6 6.29 2.07C5.78 3.01 5.39 4.03 5.12 5.1ZM8.5 15.26C7.79 14.24 7.24 13.11 6.87 11.89L10.12 11.89C9.75 13.11 9.2 14.24 8.5 15.26ZM10.48 10.2L6.51 10.2C6.43 9.63 6.37 9.07 6.37 8.5C6.37 7.92 6.43 7.35 6.51 6.8L10.48 6.8C10.56 7.35 10.62 7.92 10.62 8.5C10.62 9.07 10.56 9.63 10.48 10.2ZM10.7 14.92C11.21 13.98 11.6 12.96 11.87 11.89L14.38 11.89C13.56 13.3 12.26 14.39 10.7 14.92ZM12.2 10.2C12.27 9.63 12.32 9.07 12.32 8.5C12.32 7.92 12.27 7.36 12.2 6.8L15.07 6.8C15.21 7.34 15.3 7.91 15.3 8.5C15.3 9.08 15.21 9.65 15.07 10.2L12.2 10.2Z" fill="#101010" fill-opacity="1.000000" fill-rule="nonzero"/>
</svg>
