<svg width="15.000000" height="15.000000" viewBox="0 0 15 15" fill="none" xmlns="http://www.w3.org/2000/svg" xmlns:xlink="http://www.w3.org/1999/xlink">
	<desc>
			Created with Pixso.
	</desc>
	<defs/>
	<path id="Vector" d="M5.3 6.4C6.08 7.77 7.22 8.91 8.59 9.69L9.33 8.66C9.45 8.49 9.62 8.38 9.82 8.33C10.02 8.28 10.23 8.31 10.41 8.41C11.59 9.06 12.89 9.44 14.23 9.55C14.44 9.56 14.63 9.66 14.77 9.81C14.92 9.97 15 10.17 15 10.38L15 14.1C15 14.3 14.92 14.5 14.78 14.66C14.64 14.81 14.45 14.91 14.25 14.93C13.81 14.97 13.36 15 12.91 15C5.78 15 0 9.21 0 2.08C0 1.63 0.02 1.18 0.06 0.74C0.08 0.54 0.18 0.35 0.33 0.21C0.49 0.07 0.69 0 0.89 0L4.61 0C4.82 0 5.02 0.07 5.18 0.22C5.33 0.36 5.43 0.55 5.44 0.76C5.55 2.1 5.93 3.4 6.58 4.58C6.68 4.76 6.71 4.97 6.66 5.17C6.61 5.37 6.5 5.54 6.33 5.66L5.3 6.4ZM3.2 5.85L4.78 4.72C4.33 3.75 4.02 2.72 3.87 1.66L1.67 1.66C1.66 1.8 1.66 1.94 1.66 2.08C1.66 8.29 6.7 13.33 12.91 13.33C13.05 13.33 13.19 13.33 13.33 13.32L13.33 11.12C12.27 10.97 11.24 10.66 10.27 10.21L9.14 11.79C8.69 11.61 8.24 11.41 7.82 11.17L7.77 11.14C6.13 10.21 4.78 8.86 3.85 7.22L3.82 7.17C3.58 6.75 3.38 6.3 3.2 5.85Z" fill="#101010" fill-opacity="1.000000" fill-rule="nonzero"/>
</svg>
