<svg width="15.000000" height="14.000000" viewBox="0 0 15 14" fill="none" xmlns="http://www.w3.org/2000/svg" xmlns:xlink="http://www.w3.org/1999/xlink">
	<desc>
			Created with Pixso.
	</desc>
	<defs/>
	<path id="Vector" d="M7.5 1.15C9.26 -0.44 11.98 -0.39 13.68 1.33C15.37 3.04 15.43 5.78 13.85 7.56L7.49 14L1.14 7.56C-0.44 5.78 -0.38 3.04 1.31 1.33C3.01 -0.39 5.73 -0.45 7.5 1.15ZM12.62 2.4C11.49 1.26 9.68 1.21 8.5 2.28L7.5 3.19L6.49 2.28C5.31 1.21 3.5 1.26 2.37 2.4C1.26 3.53 1.2 5.33 2.23 6.53L7.49 11.85L12.76 6.53C13.79 5.33 13.73 3.53 12.62 2.4Z" fill="#101010" fill-opacity="1.000000" fill-rule="nonzero"/>
</svg>
