<svg width="20.897461" height="22.000000" viewBox="0 0 20.8975 22" fill="none" xmlns="http://www.w3.org/2000/svg" xmlns:xlink="http://www.w3.org/1999/xlink">
	<desc>
			Created with Pixso.
	</desc>
	<defs/>
	<path id="Vector" d="M10.44 22L3.06 15.55C1.59 14.28 0.6 12.65 0.2 10.89C-0.21 9.12 0 7.29 0.79 5.62C1.58 3.96 2.92 2.53 4.64 1.53C6.36 0.53 8.38 0 10.44 0C12.51 0 14.53 0.53 16.25 1.53C17.97 2.53 19.31 3.96 20.1 5.62C20.89 7.29 21.09 9.12 20.69 10.89C20.29 12.65 19.29 14.28 17.83 15.55L10.44 22ZM16.19 14.12C17.33 13.13 18.1 11.87 18.41 10.49C18.73 9.12 18.57 7.69 17.95 6.4C17.34 5.1 16.29 3.99 14.96 3.21C13.62 2.44 12.05 2.02 10.44 2.02C8.84 2.02 7.27 2.44 5.93 3.21C4.59 3.99 3.55 5.1 2.94 6.4C2.32 7.69 2.16 9.12 2.47 10.49C2.79 11.87 3.56 13.13 4.7 14.12L10.44 19.13L16.19 14.12ZM10.44 11.13C9.83 11.13 9.24 10.92 8.8 10.54C8.37 10.16 8.12 9.64 8.12 9.11C8.12 8.57 8.37 8.06 8.8 7.68C9.24 7.3 9.83 7.08 10.44 7.08C11.06 7.08 11.65 7.3 12.09 7.68C12.52 8.06 12.77 8.57 12.77 9.11C12.77 9.64 12.52 10.16 12.09 10.54C11.65 10.92 11.06 11.13 10.44 11.13Z" fill="#101010" fill-opacity="1.000000" fill-rule="nonzero"/>
</svg>
