<svg width="17.611328" height="17.970764" viewBox="0 0 17.6113 17.9708" fill="none" xmlns="http://www.w3.org/2000/svg" xmlns:xlink="http://www.w3.org/1999/xlink">
	<desc>
			Created with Pixso.
	</desc>
	<defs/>
	<path id="Vector" d="M12.47 6.65L11.08 5.24L1.95 14.55L1.95 15.97L3.34 15.97L12.47 6.65ZM13.85 5.24L15.24 3.82L13.85 2.41L12.47 3.82L13.85 5.24ZM4.15 17.97L0 17.97L0 13.72L13.16 0.29C13.34 0.1 13.59 0 13.85 0C14.11 0 14.36 0.1 14.55 0.29L17.32 3.12C17.5 3.3 17.61 3.56 17.61 3.82C17.61 4.09 17.5 4.34 17.32 4.53L4.15 17.97L4.15 17.97Z" fill="#8E8E8E" fill-opacity="1.000000" fill-rule="nonzero"/>
</svg>
