<svg width="15.000000" height="21.000000" viewBox="0 0 15 21" fill="none" xmlns="http://www.w3.org/2000/svg" xmlns:xlink="http://www.w3.org/1999/xlink">
	<desc>
			Created with Pixso.
	</desc>
	<defs/>
	<path id="Vector" d="M2.14 2.1L2.14 18.89L12.85 18.89L12.85 2.1L2.14 2.1ZM1.07 0L13.92 0C14.21 0 14.48 0.11 14.68 0.3C14.88 0.5 15 0.77 15 1.05L15 19.95C15 20.22 14.88 20.49 14.68 20.69C14.48 20.88 14.21 21 13.92 21L1.07 21C0.78 21 0.51 20.88 0.31 20.69C0.11 20.49 0 20.22 0 19.95L0 1.05C0 0.77 0.11 0.5 0.31 0.3C0.51 0.11 0.78 0 1.07 0ZM7.5 15.75C7.78 15.75 8.05 15.86 8.25 16.05C8.45 16.25 8.57 16.52 8.57 16.79C8.57 17.07 8.45 17.34 8.25 17.54C8.05 17.73 7.78 17.85 7.5 17.85C7.21 17.85 6.94 17.73 6.74 17.54C6.54 17.34 6.42 17.07 6.42 16.79C6.42 16.52 6.54 16.25 6.74 16.05C6.94 15.86 7.21 15.75 7.5 15.75Z" fill="#838383" fill-opacity="1.000000" fill-rule="nonzero"/>
</svg>
