<svg width="15.000000" height="17.000000" viewBox="0 0 15 17" fill="none" xmlns="http://www.w3.org/2000/svg" xmlns:xlink="http://www.w3.org/1999/xlink">
	<desc>
			Created with Pixso.
	</desc>
	<defs/>
	<path id="Vector" d="M14.16 17L0.83 17C0.61 17 0.4 16.91 0.24 16.75C0.08 16.59 0 16.37 0 16.14L0 0.85C0 0.62 0.08 0.4 0.24 0.24C0.4 0.08 0.61 0 0.83 0L14.16 0C14.38 0 14.59 0.08 14.75 0.24C14.91 0.4 15 0.62 15 0.85L15 16.14C15 16.37 14.91 16.59 14.75 16.75C14.59 16.91 14.38 17 14.16 17ZM13.33 15.3L13.33 1.69L1.66 1.69L1.66 15.3L13.33 15.3ZM3.33 3.39L6.66 3.39L6.66 6.8L3.33 6.8L3.33 3.39ZM3.33 8.5L11.66 8.5L11.66 10.2L3.33 10.2L3.33 8.5ZM3.33 11.89L11.66 11.89L11.66 13.6L3.33 13.6L3.33 11.89ZM8.33 4.25L11.66 4.25L11.66 5.94L8.33 5.94L8.33 4.25Z" fill="#101010" fill-opacity="1.000000" fill-rule="nonzero"/>
</svg>
