<svg aria-hidden="true" style="position: absolute; width: 0; height: 0; overflow: hidden;" version="1.1" xmlns="http://www.w3.org/2000/svg" xmlns:xlink="http://www.w3.org/1999/xlink">
<defs>
<symbol id="icon-Instagram" viewBox="0 0 32 32">
<path d="M15.989 11.195c-1.265 0-2.488 0.51-3.391 1.403-0.893 0.904-1.403 2.126-1.403 3.402 0 1.265 0.51 2.488 1.403 3.391 0.904 0.893 2.126 1.403 3.391 1.403 1.276 0 2.498-0.51 3.402-1.403 0.893-0.904 1.403-2.126 1.403-3.391 0-1.276-0.51-2.498-1.403-3.402-0.904-0.893-2.126-1.403-3.402-1.403zM15.989 7.995c2.126 0 4.157 0.84 5.666 2.339 1.499 1.51 2.339 3.54 2.339 5.666 0 2.116-0.84 4.146-2.339 5.656-1.51 1.499-3.54 2.339-5.666 2.339-2.116 0-4.146-0.84-5.656-2.339-1.499-1.51-2.339-3.54-2.339-5.656 0-2.126 0.84-4.157 2.339-5.666 1.51-1.499 3.54-2.339 5.656-2.339zM26.397 7.591c0 0.532-0.213 1.042-0.585 1.414-0.383 0.383-0.882 0.595-1.414 0.595s-1.042-0.213-1.414-0.595c-0.383-0.372-0.595-0.882-0.595-1.414s0.213-1.031 0.595-1.414c0.372-0.372 0.882-0.585 1.414-0.585s1.031 0.213 1.414 0.585c0.372 0.383 0.585 0.882 0.585 1.414zM15.989 3.2c-3.955 0-4.603 0.011-6.443 0.085-1.255 0.064-2.094 0.234-2.87 0.532-0.702 0.266-1.201 0.595-1.733 1.127-0.5 0.489-0.882 1.074-1.127 1.733-0.308 0.776-0.468 1.616-0.532 2.87-0.085 1.765-0.096 2.381-0.096 6.453 0 3.955 0.021 4.603 0.096 6.443 0.064 1.255 0.234 2.094 0.532 2.87 0.276 0.702 0.595 1.201 1.127 1.733s1.042 0.861 1.722 1.127c0.797 0.298 1.637 0.468 2.881 0.532 1.765 0.085 2.381 0.096 6.443 0.096 3.965 0 4.614-0.021 6.453-0.096 1.255-0.064 2.094-0.234 2.87-0.532 0.691-0.266 1.201-0.595 1.733-1.127 0.542-0.532 0.861-1.042 1.127-1.722 0.298-0.787 0.468-1.637 0.532-2.881 0.085-1.765 0.085-2.381 0.085-6.443 0-3.965-0.011-4.614-0.085-6.453-0.064-1.255-0.234-2.094-0.532-2.87-0.245-0.659-0.627-1.244-1.127-1.733-0.478-0.5-1.074-0.882-1.733-1.127-0.776-0.308-1.616-0.468-2.87-0.532-1.765-0.085-2.381-0.085-6.453-0.085zM15.989 0c4.348 0 4.89 0.011 6.602 0.096 1.701 0.074 2.86 0.34 3.88 0.744 1.063 0.404 1.946 0.957 2.839 1.839 0.808 0.797 1.446 1.765 1.85 2.839 0.393 1.021 0.659 2.179 0.734 3.88 0.085 1.712 0.106 2.254 0.106 6.602 0 4.338-0.021 4.88-0.106 6.591-0.074 1.701-0.34 2.86-0.734 3.88-0.404 1.074-1.031 2.041-1.85 2.839-0.797 0.808-1.765 1.446-2.839 1.839-1.021 0.404-2.179 0.67-3.88 0.744-1.712 0.085-2.254 0.106-6.602 0.106-4.338 0-4.88-0.021-6.591-0.106-1.701-0.074-2.86-0.34-3.88-0.744-1.074-0.393-2.041-1.021-2.839-1.839-0.819-0.797-1.446-1.765-1.839-2.839-0.404-1.021-0.67-2.179-0.744-3.88-0.085-1.712-0.096-2.254-0.096-6.591 0-4.348 0.011-4.89 0.096-6.602 0.074-1.701 0.34-2.86 0.744-3.88 0.393-1.074 1.021-2.041 1.839-2.839 0.797-0.819 1.765-1.446 2.839-1.839 1.021-0.404 2.179-0.67 3.88-0.744 1.712-0.085 2.254-0.096 6.591-0.096z"></path>
</symbol>
<symbol id="icon-lang" viewBox="0 0 32 32">
<path fill="none" stroke="#838383" style="stroke: var(--color1, #838383)" stroke-linejoin="round" stroke-linecap="butt" stroke-miterlimit="4" stroke-width="2.4" d="M16 29.328c7.36 0 13.328-5.968 13.328-13.328 0-7.376-5.968-13.344-13.328-13.344-7.376 0-13.344 5.968-13.344 13.344 0 7.36 5.968 13.328 13.344 13.328z"></path>
<path fill="none" stroke="#838383" style="stroke: var(--color1, #838383)" stroke-linejoin="round" stroke-linecap="round" stroke-miterlimit="4" stroke-width="2.4" d="M17.328 2.72c0 0 4 5.264 4 13.264s-4 13.28-4 13.28"></path>
<path fill="none" stroke="#838383" style="stroke: var(--color1, #838383)" stroke-linejoin="round" stroke-linecap="round" stroke-miterlimit="4" stroke-width="2.4" d="M14.656 29.264c0 0-4-5.28-4-13.28s4-13.264 4-13.264"></path>
<path fill="none" stroke="#838383" style="stroke: var(--color1, #838383)" stroke-linejoin="round" stroke-linecap="round" stroke-miterlimit="4" stroke-width="2.4" d="M3.504 20.656h24.976"></path>
<path fill="none" stroke="#838383" style="stroke: var(--color1, #838383)" stroke-linejoin="round" stroke-linecap="round" stroke-miterlimit="4" stroke-width="2.4" d="M3.504 11.328h24.976"></path>
</symbol>
<symbol id="icon-Telegram" viewBox="0 0 32 32">
<path d="M15.989 28.8c3.402 0 6.655-1.35 9.058-3.753s3.742-5.656 3.742-9.047c0-3.402-1.34-6.655-3.742-9.058s-5.656-3.742-9.058-3.742c-3.391 0-6.645 1.34-9.047 3.742s-3.753 5.656-3.753 9.058c0 3.391 1.35 6.645 3.753 9.047s5.656 3.753 9.047 3.753zM15.989 32c-8.835 0-15.989-7.165-15.989-16 0-8.845 7.155-16 15.989-16 8.845 0 16.011 7.155 16.011 16 0 8.835-7.165 16-16.011 16zM11.014 17.871l-3.997-1.255c-0.861-0.255-0.861-0.851 0.202-1.286l15.575-6.017c0.904-0.361 1.414 0.106 1.116 1.265l-2.647 12.513c-0.191 0.893-0.723 1.106-1.467 0.691l-4.082-3.019-1.903 1.839c-0.191 0.191-0.351 0.351-0.649 0.393-0.308 0.043-0.553-0.053-0.734-0.542l-1.393-4.593-0.021 0.011z"></path>
</symbol>
<symbol id="icon-Whatsapp" viewBox="0 0 32 32">
<path d="M8.399 26.387l1.159 0.68c1.956 1.138 4.178 1.733 6.432 1.733 2.541 0 5.007-0.755 7.112-2.158 2.105-1.414 3.753-3.413 4.72-5.752s1.223-4.912 0.723-7.389c-0.489-2.488-1.712-4.763-3.498-6.559-1.797-1.786-4.072-3.009-6.559-3.498-2.477-0.5-5.050-0.245-7.389 0.723s-4.338 2.615-5.752 4.72c-1.403 2.105-2.147 4.571-2.147 7.112 0 2.296 0.595 4.497 1.733 6.432l0.67 1.159-1.042 3.838 3.838-1.042zM0 32l2.169-7.952c-1.425-2.445-2.179-5.22-2.169-8.048 0-8.845 7.155-16 15.989-16 8.845 0 16.011 7.155 16.011 16 0 8.835-7.165 16-16.011 16-2.817 0-5.603-0.744-8.048-2.169l-7.942 2.169zM10.217 8.484c0.223-0.011 0.436-0.011 0.649 0 0.085 0 0.17 0.011 0.255 0.021 0.255 0.032 0.542 0.181 0.638 0.404 0.468 1.074 0.936 2.169 1.382 3.264 0.106 0.245 0.043 0.553-0.149 0.851-0.128 0.213-0.266 0.415-0.415 0.595-0.181 0.234-0.574 0.659-0.574 0.659s-0.159 0.191-0.096 0.425c0.021 0.096 0.096 0.223 0.159 0.33l0.096 0.149c0.415 0.691 0.957 1.382 1.637 2.031 0.191 0.191 0.372 0.383 0.574 0.553 0.755 0.659 1.595 1.201 2.509 1.605h0.011c0.138 0.064 0.202 0.096 0.404 0.181 0.106 0.043 0.202 0.074 0.308 0.106 0.106 0.021 0.223 0.021 0.33-0.021 0.096-0.032 0.191-0.106 0.255-0.191 1.159-1.403 1.265-1.499 1.276-1.499v0.011c0.085-0.074 0.181-0.138 0.276-0.17 0.106-0.032 0.223-0.043 0.33-0.032 0.096 0 0.191 0.021 0.276 0.064 0.851 0.383 2.243 0.989 2.243 0.989l0.936 0.425c0.149 0.074 0.298 0.245 0.298 0.415 0.011 0.106 0.021 0.287-0.021 0.606-0.043 0.415-0.17 0.904-0.298 1.169-0.085 0.181-0.202 0.34-0.34 0.478-0.159 0.17-0.33 0.33-0.521 0.468-0.064 0.043-0.138 0.096-0.202 0.138-0.202 0.128-0.404 0.245-0.617 0.351-0.404 0.223-0.861 0.351-1.329 0.372-0.298 0.011-0.595 0.043-0.893 0.021-0.011 0-0.904-0.138-0.904-0.138-2.275-0.595-4.38-1.722-6.145-3.274-0.361-0.319-0.702-0.659-1.042-0.999-1.425-1.414-2.498-2.945-3.147-4.391-0.34-0.712-0.521-1.478-0.532-2.264-0.011-0.967 0.308-1.914 0.904-2.69 0.117-0.149 0.223-0.298 0.415-0.478 0.202-0.191 0.33-0.298 0.468-0.372 0.191-0.085 0.393-0.149 0.595-0.159v0z"></path>
</symbol>
</defs>
</svg>
