<svg width="30.100098" height="30.099976" viewBox="0 0 30.1001 30.1" fill="none" xmlns="http://www.w3.org/2000/svg" xmlns:xlink="http://www.w3.org/1999/xlink">
	<desc>
			Created with Pixso.
	</desc>
	<defs/>
	<path id="Instagram" d="M15.04 10.53C13.85 10.53 12.7 11.01 11.85 11.85C11.01 12.7 10.53 13.85 10.53 15.05C10.53 16.24 11.01 17.39 11.85 18.24C12.7 19.08 13.85 19.56 15.04 19.56C16.24 19.56 17.39 19.08 18.24 18.24C19.08 17.39 19.56 16.24 19.56 15.05C19.56 13.85 19.08 12.7 18.24 11.85C17.39 11.01 16.24 10.53 15.04 10.53ZM15.04 7.52C17.04 7.52 18.95 8.31 20.37 9.72C21.78 11.14 22.57 13.05 22.57 15.05C22.57 17.04 21.78 18.95 20.37 20.37C18.95 21.78 17.04 22.57 15.04 22.57C13.05 22.57 11.14 21.78 9.72 20.37C8.31 18.95 7.52 17.04 7.52 15.05C7.52 13.05 8.31 11.14 9.72 9.72C11.14 8.31 13.05 7.52 15.04 7.52ZM24.83 7.14C24.83 7.64 24.63 8.12 24.28 8.47C23.92 8.83 23.45 9.03 22.95 9.03C22.45 9.03 21.97 8.83 21.62 8.47C21.26 8.12 21.06 7.64 21.06 7.14C21.06 6.64 21.26 6.17 21.62 5.81C21.97 5.46 22.45 5.26 22.95 5.26C23.45 5.26 23.92 5.46 24.28 5.81C24.63 6.17 24.83 6.64 24.83 7.14ZM15.04 3.01C11.32 3.01 10.71 3.02 8.98 3.09C7.8 3.15 7.01 3.31 6.28 3.59C5.62 3.84 5.15 4.15 4.65 4.65C4.18 5.11 3.82 5.66 3.59 6.28C3.3 7.01 3.15 7.8 3.09 8.98C3.01 10.64 3 11.22 3 15.05C3 18.77 3.02 19.38 3.09 21.11C3.15 22.29 3.31 23.08 3.59 23.81C3.85 24.47 4.15 24.94 4.65 25.44C5.15 25.94 5.63 26.25 6.27 26.5C7.02 26.78 7.81 26.94 8.98 27C10.64 27.08 11.22 27.09 15.04 27.09C18.77 27.09 19.38 27.07 21.11 27C22.29 26.94 23.08 26.78 23.81 26.5C24.46 26.25 24.94 25.94 25.44 25.44C25.95 24.94 26.25 24.46 26.5 23.82C26.78 23.08 26.94 22.28 27 21.11C27.08 19.45 27.08 18.87 27.08 15.05C27.08 11.32 27.07 10.71 27 8.98C26.94 7.8 26.78 7.01 26.5 6.28C26.27 5.66 25.91 5.11 25.44 4.65C24.99 4.18 24.43 3.82 23.81 3.59C23.08 3.3 22.29 3.15 21.11 3.09C19.45 3.01 18.87 3.01 15.04 3.01ZM15.04 0C19.13 0 19.64 0.01 21.25 0.09C22.85 0.16 23.94 0.41 24.9 0.79C25.9 1.17 26.73 1.69 27.57 2.52C28.33 3.27 28.93 4.18 29.31 5.19C29.68 6.15 29.93 7.24 30 8.84C30.08 10.45 30.1 10.96 30.1 15.05C30.1 19.13 30.08 19.64 30 21.25C29.93 22.85 29.68 23.94 29.31 24.9C28.93 25.91 28.34 26.82 27.57 27.57C26.82 28.33 25.91 28.93 24.9 29.3C23.94 29.68 22.85 29.93 21.25 30C19.64 30.08 19.13 30.1 15.04 30.1C10.96 30.1 10.45 30.08 8.84 30C7.24 29.93 6.15 29.68 5.19 29.3C4.18 28.93 3.27 28.34 2.52 27.57C1.75 26.82 1.16 25.91 0.79 24.9C0.41 23.94 0.16 22.85 0.09 21.25C0.01 19.64 0 19.13 0 15.05C0 10.96 0.01 10.45 0.09 8.84C0.16 7.24 0.41 6.15 0.79 5.19C1.16 4.18 1.75 3.27 2.52 2.52C3.27 1.75 4.18 1.16 5.19 0.79C6.15 0.41 7.24 0.16 8.84 0.09C10.45 0.01 10.96 0 15.04 0Z" fill="#101010" fill-opacity="1.000000" fill-rule="nonzero"/>
</svg>
