<svg width="20.000000" height="20.000000" viewBox="0 0 20 20" fill="none" xmlns="http://www.w3.org/2000/svg" xmlns:xlink="http://www.w3.org/1999/xlink">
	<desc>
			Created with Pixso.
	</desc>
	<defs>
		<clipPath id="clip422_339">
			<rect id="Lang" rx="-0.500000" width="19.000000" height="19.000000" transform="translate(0.500000 0.500000)" fill="white" fill-opacity="0"/>
		</clipPath>
	</defs>
	<rect id="Lang" rx="-0.500000" width="19.000000" height="19.000000" transform="translate(0.500000 0.500000)" fill="#FFFFFF" fill-opacity="0"/>
	<g clip-path="url(#clip422_339)">
		<path id="Vector" d="M10 18.33C14.6 18.33 18.33 14.6 18.33 10C18.33 5.39 14.6 1.66 10 1.66C5.39 1.66 1.66 5.39 1.66 10C1.66 14.6 5.39 18.33 10 18.33Z" stroke="#838383" stroke-opacity="1.000000" stroke-width="1.500000" stroke-linejoin="round"/>
		<path id="Vector" d="M10.83 1.7C10.83 1.7 13.33 4.99 13.33 9.99C13.33 14.99 10.83 18.29 10.83 18.29" stroke="#838383" stroke-opacity="1.000000" stroke-width="1.500000" stroke-linejoin="round" stroke-linecap="round"/>
		<path id="Vector" d="M9.16 18.29C9.16 18.29 6.66 14.99 6.66 9.99C6.66 4.99 9.16 1.7 9.16 1.7" stroke="#838383" stroke-opacity="1.000000" stroke-width="1.500000" stroke-linejoin="round" stroke-linecap="round"/>
		<path id="Vector" d="M2.19 12.91L17.8 12.91" stroke="#838383" stroke-opacity="1.000000" stroke-width="1.500000" stroke-linejoin="round" stroke-linecap="round"/>
		<path id="Vector" d="M2.19 7.08L17.8 7.08" stroke="#838383" stroke-opacity="1.000000" stroke-width="1.500000" stroke-linejoin="round" stroke-linecap="round"/>
	</g>
</svg>
