<svg width="83.472656" height="21.820068" viewBox="0 0 83.4727 21.8201" fill="none" xmlns="http://www.w3.org/2000/svg" xmlns:xlink="http://www.w3.org/1999/xlink">
	<desc>
			Created with Pixso.
	</desc>
	<defs/>
	<path id="QPICK" d="M18.92 20.7Q19.53 20.27 20.02 19.67L18.22 17.52Q17.42 18.37 16.45 18.66Q15.94 18.82 15.37 18.82Q14.91 18.82 14.49 18.68Q14.29 18.62 14.11 18.53Q13.52 18.24 12.89 17.59Q14.56 17.06 15.84 16.05Q16.73 15.34 17.43 14.39Q18.02 13.6 18.41 12.71Q19.14 11.04 19.14 9.04Q19.14 7.2 18.5 5.63Q18.25 5 17.89 4.41Q17.39 3.57 16.73 2.88Q15.76 1.87 14.47 1.17Q14.22 1.04 13.96 0.92Q11.98 0 9.57 0Q7.19 0 5.21 0.9Q4.93 1.02 4.65 1.17Q3.33 1.88 2.35 2.92Q1.72 3.59 1.23 4.41Q0.9 4.96 0.66 5.55Q0 7.16 0 9.04Q0 10.86 0.61 12.43Q0.8 12.89 1.03 13.33Q1.49 14.18 2.09 14.88Q2.88 15.8 3.93 16.49Q4.24 16.69 4.55 16.87Q6.18 17.77 8.17 18.02Q10.19 20.14 11.77 20.98Q11.98 21.09 12.2 21.19Q13.61 21.82 15.29 21.82Q16.72 21.82 17.91 21.29Q17.93 21.28 17.95 21.27Q18.47 21.03 18.92 20.7ZM52.66 17.26Q54.56 18.09 56.82 18.09Q59.09 18.09 60.94 17.29Q62.04 16.82 62.93 16.09Q63.54 15.59 64.04 14.97L61.44 12.57Q60.45 13.72 59.2 14.24Q58.21 14.64 57.04 14.64Q55.59 14.64 54.42 14.07Q54.28 14 54.14 13.93Q53.49 13.56 52.98 13.05Q52.5 12.56 52.15 11.95Q52.09 11.83 52.03 11.71Q51.44 10.52 51.44 9.04Q51.44 7.59 52.01 6.41Q52.08 6.27 52.15 6.14Q52.52 5.49 53.02 4.99Q53.52 4.51 54.14 4.16Q54.28 4.08 54.42 4.02Q55.59 3.44 57.04 3.44Q58.23 3.44 59.24 3.86Q60.47 4.37 61.44 5.49L64.04 3.1Q63.56 2.52 63 2.05Q62.09 1.29 60.96 0.79Q59.12 0 56.84 0Q54.49 0 52.54 0.88Q52.25 1.01 51.98 1.16Q50.75 1.82 49.82 2.77Q49.11 3.49 48.58 4.38Q48.3 4.84 48.09 5.32Q47.35 7.02 47.35 9.04Q47.35 11.05 48.08 12.74Q48.3 13.23 48.58 13.7Q49.11 14.59 49.81 15.31Q50.74 16.27 51.98 16.93Q52.31 17.11 52.66 17.26ZM33.8 1.07Q32.09 0.29 29.77 0.29L22.19 0.29L22.19 17.79L26.25 17.79L26.25 12.97L29.77 12.97Q32.09 12.97 33.8 12.21Q35.15 11.61 36.01 10.6Q36.24 10.32 36.44 10.01Q36.57 9.8 36.69 9.59Q37.37 8.29 37.37 6.64Q37.37 4.89 36.62 3.56Q36.53 3.42 36.44 3.27Q36.26 3 36.06 2.75Q35.19 1.7 33.8 1.07ZM44.3 0.29L40.24 0.29L40.24 17.79L44.3 17.79L44.3 0.29ZM70.79 13.37L73.14 10.92L78.74 17.79L83.47 17.79L75.8 8.09L83.04 0.29L78.54 0.29L70.79 8.47L70.79 0.29L66.77 0.29L66.77 17.79L70.79 17.79L70.79 13.37ZM4.68 11.71Q4.09 10.52 4.09 9.04Q4.09 7.59 4.66 6.41Q4.73 6.27 4.8 6.14Q5.2 5.43 5.77 4.9Q6.22 4.47 6.77 4.16Q7.05 4 7.35 3.87Q8.37 3.44 9.57 3.44Q10.74 3.44 11.75 3.86Q12.07 3.99 12.37 4.16Q12.92 4.47 13.37 4.9Q13.93 5.43 14.33 6.14Q14.41 6.27 14.47 6.41Q15.05 7.59 15.05 9.04Q15.05 10.52 14.46 11.71Q14.4 11.83 14.33 11.95Q13.95 12.63 13.41 13.15Q12.94 13.6 12.37 13.93Q12.07 14.1 11.75 14.23Q10.74 14.64 9.57 14.64Q8.37 14.64 7.35 14.22Q7.05 14.09 6.77 13.93Q6.19 13.6 5.73 13.15Q5.19 12.63 4.8 11.95Q4.74 11.83 4.68 11.71ZM32.31 8.88Q31.37 9.67 29.54 9.67L26.25 9.67L26.25 3.59L29.54 3.59Q31.37 3.59 32.31 4.38Q32.57 4.59 32.76 4.85Q33.27 5.57 33.27 6.64Q33.27 7.68 32.78 8.38Q32.58 8.66 32.31 8.88Z" fill="#101010" fill-opacity="1.000000" fill-rule="evenodd"/>
</svg>
