<svg width="20.728516" height="22.000000" viewBox="0 0 20.7285 22" fill="none" xmlns="http://www.w3.org/2000/svg" xmlns:xlink="http://www.w3.org/1999/xlink">
	<desc>
			Created with Pixso.
	</desc>
	<defs/>
	<path id="Vector" d="M10.36 22L3.03 15.55C1.58 14.28 0.59 12.65 0.19 10.89C-0.21 9.12 0 7.29 0.78 5.62C1.57 3.96 2.9 2.53 4.6 1.53C6.31 0.53 8.31 0 10.36 0C12.41 0 14.41 0.53 16.12 1.53C17.82 2.53 19.15 3.96 19.93 5.62C20.72 7.29 20.92 9.12 20.52 10.89C20.12 12.65 19.14 14.28 17.69 15.55L10.36 22ZM16.06 14.12C17.19 13.13 17.95 11.87 18.27 10.49C18.58 9.12 18.42 7.69 17.81 6.4C17.2 5.1 16.16 3.99 14.84 3.21C13.51 2.44 11.95 2.02 10.36 2.02C8.76 2.02 7.21 2.44 5.88 3.21C4.56 3.99 3.52 5.1 2.91 6.4C2.3 7.69 2.14 9.12 2.45 10.49C2.76 11.87 3.53 13.13 4.66 14.12L10.36 19.13L16.06 14.12ZM10.36 11.13C9.75 11.13 9.16 10.92 8.73 10.54C8.3 10.16 8.06 9.64 8.06 9.11C8.06 8.57 8.3 8.06 8.73 7.68C9.16 7.3 9.75 7.08 10.36 7.08C10.97 7.08 11.56 7.3 11.99 7.68C12.42 8.06 12.66 8.57 12.66 9.11C12.66 9.64 12.42 10.16 11.99 10.54C11.56 10.92 10.97 11.13 10.36 11.13Z" fill="#101010" fill-opacity="1.000000" fill-rule="nonzero"/>
</svg>
